<svg xmlns="http://www.w3.org/2000/svg" xmlns:xlink="http://www.w3.org/1999/xlink" width="1080" zoomAndPan="magnify" viewBox="0 0 810 809.999993" height="1080" preserveAspectRatio="xMidYMid meet" version="1.0"><defs><clipPath id="9a6e98b098"><path d="M 170 18.730469 L 712 18.730469 L 712 791 L 170 791 Z M 170 18.730469 " clip-rule="nonzero"/></clipPath><clipPath id="1f3efca909"><path d="M 635 18.730469 L 810 18.730469 L 810 146 L 635 146 Z M 635 18.730469 " clip-rule="nonzero"/></clipPath><clipPath id="6bb05c44c3"><path d="M 72 629 L 547 629 L 547 791.230469 L 72 791.230469 Z M 72 629 " clip-rule="nonzero"/></clipPath></defs><g clip-path="url(#9a6e98b098)"><path fill="#000002" d="M 530.910156 790.28125 C 523.796875 790.28125 517.632812 785.066406 516.683594 777.480469 C 516.207031 769.890625 521.898438 762.777344 529.488281 761.828125 C 589.714844 755.664062 635.242188 704.925781 635.242188 644.222656 L 635.242188 131.59375 C 635.242188 123.535156 641.40625 117.367188 649.46875 117.367188 C 657.058594 117.367188 663.695312 123.535156 663.695312 131.59375 L 663.695312 644.222656 C 663.695312 719.152344 607.261719 782.222656 532.332031 790.28125 C 531.859375 790.28125 531.382812 790.28125 530.910156 790.28125 Z M 184.242188 658.449219 C 176.179688 658.449219 170.015625 651.8125 170.015625 644.222656 L 170.015625 553.175781 C 170.015625 545.585938 176.179688 538.949219 184.242188 538.949219 C 191.828125 538.949219 198.46875 545.585938 198.46875 553.175781 L 198.46875 644.222656 C 198.46875 651.8125 191.828125 658.449219 184.242188 658.449219 Z M 184.242188 270.539062 C 176.179688 270.539062 170.015625 264.375 170.015625 256.3125 L 170.015625 109.78125 C 170.015625 59.515625 210.800781 18.730469 261.070312 18.730469 L 696.894531 18.730469 C 704.957031 18.730469 711.121094 24.894531 711.121094 32.957031 C 711.121094 40.546875 704.957031 47.183594 696.894531 47.183594 L 261.070312 47.183594 C 226.449219 47.183594 198.46875 75.164062 198.46875 109.78125 L 198.46875 256.3125 C 198.46875 264.375 191.828125 270.539062 184.242188 270.539062 Z M 184.242188 270.539062 " fill-opacity="1" fill-rule="evenodd"/></g><g clip-path="url(#1f3efca909)"><path fill="#000002" d="M 795.535156 145.820312 L 649.46875 145.820312 C 641.40625 145.820312 635.242188 139.183594 635.242188 131.59375 L 635.242188 82.277344 C 635.242188 47.183594 663.695312 18.730469 698.789062 18.730469 L 746.214844 18.730469 C 781.308594 18.730469 809.761719 47.183594 809.761719 82.277344 L 809.761719 131.59375 C 809.761719 139.183594 803.125 145.820312 795.535156 145.820312 Z M 663.695312 117.367188 L 781.308594 117.367188 L 781.308594 82.277344 C 781.308594 62.832031 765.183594 47.183594 746.214844 47.183594 L 698.789062 47.183594 C 679.347656 47.183594 663.695312 62.832031 663.695312 82.277344 Z M 663.695312 117.367188 " fill-opacity="1" fill-rule="evenodd"/></g><g clip-path="url(#6bb05c44c3)"><path fill="#000002" d="M 531.859375 791.230469 L 219.808594 791.230469 C 138.714844 791.230469 72.796875 725.316406 72.796875 644.222656 C 72.796875 636.164062 78.960938 629.996094 87.023438 629.996094 L 531.859375 629.996094 C 537.550781 629.996094 542.292969 633.316406 544.664062 638.535156 C 547.035156 643.75 546.085938 649.441406 542.292969 653.707031 C 506.722656 693.070312 506.25 728.636719 540.871094 766.097656 C 544.1875 768.46875 546.085938 772.738281 546.085938 777.003906 C 546.085938 784.59375 539.921875 791.230469 531.859375 791.230469 Z M 102.199219 658.449219 C 109.3125 717.253906 159.105469 762.777344 219.808594 762.777344 L 502.457031 762.777344 C 481.117188 728.636719 481.589844 693.070312 502.929688 658.449219 Z M 102.199219 658.449219 " fill-opacity="1" fill-rule="evenodd"/></g><path fill="#000002" d="M 164.324219 568.824219 C 73.742188 568.824219 0.238281 495.320312 0.238281 404.746094 C 0.238281 314.644531 73.742188 241.140625 164.324219 241.140625 C 254.429688 241.140625 327.9375 314.644531 327.9375 404.746094 C 327.9375 495.320312 254.429688 568.824219 164.324219 568.824219 Z M 164.324219 269.59375 C 89.394531 269.59375 28.691406 330.292969 28.691406 404.746094 C 28.691406 479.671875 89.394531 540.371094 164.324219 540.371094 C 238.777344 540.371094 299.480469 479.671875 299.480469 404.746094 C 299.480469 330.292969 238.777344 269.59375 164.324219 269.59375 Z M 164.324219 269.59375 " fill-opacity="1" fill-rule="evenodd"/><path fill="#000002" d="M 135.871094 465.917969 C 132.550781 465.917969 128.753906 464.496094 125.910156 461.652344 L 89.394531 424.660156 C 83.703125 419.445312 83.703125 410.433594 89.394531 404.746094 C 94.609375 399.054688 103.621094 399.054688 109.3125 404.746094 L 135.871094 431.300781 L 219.335938 348.3125 C 224.550781 342.621094 233.5625 342.621094 239.253906 348.3125 C 244.945312 354.003906 244.945312 363.011719 239.253906 368.230469 L 145.828125 461.652344 C 143.457031 464.496094 139.664062 465.917969 135.871094 465.917969 Z M 135.871094 465.917969 " fill-opacity="1" fill-rule="evenodd"/><path fill="#000002" d="M 560.789062 143.925781 L 320.347656 143.925781 C 312.285156 143.925781 306.121094 137.285156 306.121094 129.699219 C 306.121094 121.636719 312.285156 115.472656 320.347656 115.472656 L 560.789062 115.472656 C 568.375 115.472656 575.015625 121.636719 575.015625 129.699219 C 575.015625 137.285156 568.375 143.925781 560.789062 143.925781 Z M 560.789062 143.925781 " fill-opacity="1" fill-rule="evenodd"/><path fill="#000002" d="M 560.789062 227.386719 L 320.347656 227.386719 C 312.285156 227.386719 306.121094 220.75 306.121094 213.160156 C 306.121094 205.097656 312.285156 198.933594 320.347656 198.933594 L 560.789062 198.933594 C 568.375 198.933594 575.015625 205.097656 575.015625 213.160156 C 575.015625 220.75 568.375 227.386719 560.789062 227.386719 Z M 560.789062 227.386719 " fill-opacity="1" fill-rule="evenodd"/><path fill="#000002" d="M 560.789062 310.847656 L 393.855469 310.847656 C 386.265625 310.847656 379.628906 304.683594 379.628906 296.621094 C 379.628906 289.035156 386.265625 282.394531 393.855469 282.394531 L 560.789062 282.394531 C 568.375 282.394531 575.015625 289.035156 575.015625 296.621094 C 575.015625 304.683594 568.375 310.847656 560.789062 310.847656 Z M 560.789062 310.847656 " fill-opacity="1" fill-rule="evenodd"/><path fill="#000002" d="M 560.789062 394.785156 L 393.855469 394.785156 C 386.265625 394.785156 379.628906 388.148438 379.628906 380.558594 C 379.628906 372.496094 386.265625 366.332031 393.855469 366.332031 L 560.789062 366.332031 C 568.375 366.332031 575.015625 372.496094 575.015625 380.558594 C 575.015625 388.148438 568.375 394.785156 560.789062 394.785156 Z M 560.789062 394.785156 " fill-opacity="1" fill-rule="evenodd"/><path fill="#000002" d="M 560.789062 478.25 L 393.855469 478.25 C 386.265625 478.25 379.628906 471.609375 379.628906 464.023438 C 379.628906 455.960938 386.265625 449.796875 393.855469 449.796875 L 560.789062 449.796875 C 568.375 449.796875 575.015625 455.960938 575.015625 464.023438 C 575.015625 471.609375 568.375 478.25 560.789062 478.25 Z M 560.789062 478.25 " fill-opacity="1" fill-rule="evenodd"/><path fill="#000002" d="M 560.789062 561.710938 L 320.347656 561.710938 C 312.285156 561.710938 306.121094 555.546875 306.121094 547.484375 C 306.121094 539.894531 312.285156 533.257812 320.347656 533.257812 L 560.789062 533.257812 C 568.375 533.257812 575.015625 539.894531 575.015625 547.484375 C 575.015625 555.546875 568.375 561.710938 560.789062 561.710938 Z M 560.789062 561.710938 " fill-opacity="1" fill-rule="evenodd"/></svg>