<svg xmlns="http://www.w3.org/2000/svg" xmlns:xlink="http://www.w3.org/1999/xlink" width="1080" zoomAndPan="magnify" viewBox="0 0 810 809.999993" height="1080" preserveAspectRatio="xMidYMid meet" version="1.0"><path fill="#000000" d="M 333.808594 262.617188 C 333.808594 197.195312 280.578125 143.964844 215.15625 143.964844 C 149.734375 143.964844 96.503906 197.195312 96.503906 262.617188 C 96.503906 328.039062 149.734375 382.851562 215.15625 382.851562 C 280.578125 382.851562 333.808594 328.039062 333.808594 262.617188 Z M 333.808594 262.617188 " fill-opacity="1" fill-rule="nonzero"/><path fill="#000000" d="M 428.730469 620.15625 L 405 620.15625 C 391.890625 620.15625 381.269531 630.777344 381.269531 643.886719 L 381.269531 691.347656 C 381.269531 704.457031 391.890625 715.078125 405 715.078125 L 428.730469 715.078125 C 454.941406 715.078125 476.191406 693.828125 476.191406 667.617188 C 476.191406 641.40625 454.941406 620.15625 428.730469 620.15625 Z M 428.730469 620.15625 " fill-opacity="1" fill-rule="nonzero"/><path fill="#000000" d="M 134.949219 810 L 150.613281 762.539062 L 120.234375 762.539062 C 94.609375 762.539062 70.398438 756.84375 49.042969 745.929688 L 49.042969 786.269531 C 49.042969 799.558594 59.484375 810 72.773438 810 Z M 134.949219 810 " fill-opacity="1" fill-rule="nonzero"/><path fill="#000000" d="M 120.234375 715.0625 L 166.746094 715.0625 C 164.804688 720.929688 196.417969 625.15625 198.066406 620.15625 L 120.234375 620.15625 C 106.945312 620.15625 96.503906 609.714844 96.503906 596.425781 L 96.503906 501.503906 C 96.503906 488.214844 106.945312 477.773438 120.234375 477.773438 C 133.523438 477.773438 143.964844 488.214844 143.964844 501.503906 L 143.964844 572.679688 L 213.730469 572.679688 C 212.050781 577.671875 238.632812 498.898438 240.3125 493.90625 C 243.164062 484.414062 252.175781 477.773438 262.617188 477.773438 L 426.355469 477.773438 C 415.441406 423.671875 367.507812 382.851562 310.078125 382.851562 L 120.234375 382.851562 C 54.539062 382.851562 0 436.097656 0 501.503906 L 0 596.425781 C 0 664.296875 58.261719 715.0625 120.234375 715.0625 Z M 120.234375 715.0625 " fill-opacity="1" fill-rule="nonzero"/><path fill="#000000" d="M 436.632812 525.234375 L 279.722656 525.234375 L 184.792969 810 L 357.539062 810 C 367.75 810 376.8125 803.464844 380.042969 793.785156 L 390.933594 761.113281 C 358.394531 754.5625 333.808594 725.789062 333.808594 691.347656 L 333.808594 643.886719 C 333.808594 604.632812 365.746094 572.695312 405 572.695312 L 428.730469 572.695312 C 437.019531 572.695312 444.929688 574.105469 452.601562 576.105469 L 459.144531 556.464844 C 464.269531 541.105469 452.832031 525.234375 436.632812 525.234375 Z M 436.632812 525.234375 " fill-opacity="1" fill-rule="nonzero"/><path fill="#000000" d="M 738.808594 0 L 452.460938 0 C 413.207031 0 381.269531 31.9375 381.269531 71.191406 L 381.269531 262.617188 C 381.269531 301.871094 413.207031 335.390625 452.460938 335.390625 L 476.191406 335.390625 L 476.191406 406.582031 C 476.191406 416.171875 481.960938 424.839844 490.839844 428.507812 C 499.59375 432.160156 509.859375 430.195312 516.699219 423.359375 L 604.671875 335.390625 L 738.808594 335.390625 C 778.0625 335.390625 810 301.871094 810 262.617188 L 810 71.191406 C 810 31.9375 778.0625 0 738.808594 0 Z M 659.082031 160.742188 L 587.890625 231.933594 C 583.257812 236.570312 577.1875 238.886719 571.113281 238.886719 C 565.039062 238.886719 558.96875 236.570312 554.335938 231.933594 L 518.742188 196.335938 C 509.472656 187.066406 509.472656 172.054688 518.742188 162.785156 C 528.011719 153.515625 543.023438 153.515625 552.292969 162.785156 L 571.113281 181.597656 L 625.527344 127.1875 C 634.796875 117.917969 649.8125 117.917969 659.082031 127.1875 C 668.351562 136.457031 668.351562 151.472656 659.082031 160.742188 Z M 659.082031 160.742188 " fill-opacity="1" fill-rule="nonzero"/></svg>