<svg xmlns="http://www.w3.org/2000/svg" xmlns:xlink="http://www.w3.org/1999/xlink" width="1080" zoomAndPan="magnify" viewBox="0 0 810 809.999993" height="1080" preserveAspectRatio="xMidYMid meet" version="1.0"><defs><clipPath id="77e23a9e5e"><path d="M 0 23 L 785 23 L 785 807.75 L 0 807.75 Z M 0 23 " clip-rule="nonzero"/></clipPath></defs><g clip-path="url(#77e23a9e5e)"><path fill="#000000" d="M 1.929688 159.222656 L 34.203125 125.277344 C 53.132812 106.375 84.964844 112.921875 84.964844 112.921875 L 179.460938 125.867188 L 227.324219 79.042969 C 252.527344 54.285156 275.296875 92.152344 265.390625 105.222656 L 240.816406 133.773438 L 342.59375 152.613281 L 377.132812 112.355469 C 414.042969 68.238281 441.511719 107.992188 424.851562 131.382812 L 402.542969 159.621094 L 555.4375 179.550781 C 686.90625 53.070312 740.582031 0.601562 775.164062 31.777344 C 809.980469 63.140625 748.390625 125.675781 628.632812 249.011719 L 650.371094 406.496094 L 682.414062 379.8125 C 701.320312 364.058594 734.894531 389.316406 700.230469 422.191406 L 656.164062 463.726562 L 674.753906 566.816406 L 702.285156 545.648438 C 726.609375 526.285156 756.113281 551.902344 723.25 586.996094 L 679.519531 631.054688 C 677.714844 632.394531 693.789062 721.472656 693.789062 721.472656 C 703.691406 765.128906 679.058594 781.070312 679.058594 781.070312 L 649.027344 807.253906 L 534.914062 485 C 525.449219 456.65625 501.484375 425.859375 461.449219 429.511719 C 440.296875 431.753906 386.847656 467.839844 379.628906 476.398438 L 255.882812 595.367188 C 252.714844 597.613281 274.917969 750.023438 274.917969 750.023438 C 274.917969 754.511719 235.675781 805.953125 235.675781 805.953125 L 157.257812 666.421875 L 118.542969 684.421875 L 141.183594 649.179688 L 0 569.5 L 52.945312 530.796875 C 78.144531 536.648438 210.328125 551.5 213.035156 550.160156 C 213.035156 550.160156 320.683594 443.417969 326.832031 436.980469 C 362.402344 399.617188 374.363281 385.644531 379.753906 367.203125 C 385.167969 348.722656 375.957031 321.660156 320.136719 287.402344 C 243.148438 240.136719 1.929688 159.222656 1.929688 159.222656 Z M 1.929688 159.222656 " fill-opacity="1" fill-rule="nonzero"/></g></svg>