<svg xmlns="http://www.w3.org/2000/svg" xmlns:xlink="http://www.w3.org/1999/xlink" width="1080" zoomAndPan="magnify" viewBox="0 0 810 809.999993" height="1080" preserveAspectRatio="xMidYMid meet" version="1.0"><defs><clipPath id="943be35e70"><path d="M 0 462 L 145 462 L 145 723.230469 L 0 723.230469 Z M 0 462 " clip-rule="nonzero"/></clipPath></defs><path fill="#040606" d="M 766.78125 377.539062 C 761.53125 377.539062 756.570312 378.617188 751.894531 380.273438 L 551.984375 505.3125 C 538.464844 513.730469 514.589844 520.636719 498.554688 520.636719 L 332.65625 520.636719 C 324.675781 520.636719 318.203125 514.160156 318.203125 506.175781 C 318.203125 498.1875 324.675781 491.714844 332.65625 491.714844 L 491.796875 491.714844 C 515.742188 491.714844 535.15625 472.214844 535.15625 448.257812 C 535.15625 424.300781 515.742188 404.875 491.796875 404.875 L 289.296875 404.875 C 273.332031 404.875 251.183594 414.011719 239.894531 425.308594 L 173.59375 491.714844 L 173.59375 694.308594 L 469.648438 694.308594 C 501.574219 694.308594 546.808594 676.898438 570.464844 655.53125 L 797.273438 451.351562 L 797.273438 451.28125 C 805.109375 443.511719 810 432.648438 810 420.703125 C 810 396.890625 790.65625 377.539062 766.78125 377.539062 " fill-opacity="1" fill-rule="nonzero"/><path fill="#040606" d="M 593.046875 144.367188 L 593.046875 149.90625 C 600.597656 152.207031 607.570312 156.164062 613.324219 161.921875 C 617.710938 166.308594 621.308594 171.558594 623.75 177.316406 C 626.84375 184.726562 623.320312 193.214844 615.984375 196.308594 C 608.722656 199.332031 600.164062 195.949219 597 188.613281 C 596.136719 186.238281 594.628906 184.222656 592.902344 182.425781 C 588.945312 178.46875 582.835938 176.597656 578.519531 176.453125 C 570.464844 176.453125 563.273438 181.488281 560.613281 188.972656 C 558.816406 193.792969 559.03125 198.972656 561.191406 203.574219 C 563.347656 208.179688 567.15625 211.632812 571.976562 213.433594 L 595.058594 221.777344 C 619.941406 230.914062 632.742188 258.46875 623.75 283.289062 C 618.503906 297.535156 606.996094 308.253906 593.046875 312.644531 L 593.046875 318.039062 C 593.046875 326.027344 586.503906 332.5 578.59375 332.5 C 570.539062 332.5 564.136719 326.027344 564.136719 318.039062 L 564.136719 312.5 C 556.585938 310.199219 549.613281 306.242188 543.789062 300.484375 C 539.472656 296.167969 535.949219 290.988281 533.433594 285.234375 C 530.269531 277.824219 533.648438 269.332031 541.054688 266.167969 C 548.390625 262.929688 556.875 266.457031 559.96875 273.722656 C 561.046875 276.167969 562.484375 278.253906 564.28125 279.980469 C 568.09375 283.867188 573.199219 286.023438 578.59375 286.023438 C 586.574219 286.023438 593.835938 280.917969 596.570312 273.433594 C 598.296875 268.613281 598.078125 263.503906 595.921875 258.828125 C 593.765625 254.226562 589.953125 250.769531 585.136719 248.972656 L 562.050781 240.628906 C 537.171875 231.492188 524.300781 203.933594 533.433594 179.113281 C 538.609375 164.871094 550.117188 154.148438 564.136719 149.761719 L 564.136719 144.367188 C 564.136719 136.378906 570.539062 129.90625 578.59375 129.90625 C 586.503906 129.90625 593.046875 136.378906 593.046875 144.367188 Z M 433.90625 231.203125 C 433.90625 311.132812 498.699219 375.953125 578.59375 375.953125 C 658.484375 375.953125 723.203125 311.132812 723.203125 231.203125 C 723.203125 151.34375 658.484375 86.523438 578.59375 86.523438 C 498.699219 86.523438 433.90625 151.34375 433.90625 231.203125 " fill-opacity="1" fill-rule="nonzero"/><g clip-path="url(#943be35e70)"><path fill="#040606" d="M 115.703125 462.71875 L 28.90625 462.71875 C 12.945312 462.71875 0 475.671875 0 491.714844 L 0 694.308594 C 0 710.28125 12.945312 723.230469 28.90625 723.230469 L 115.703125 723.230469 C 131.738281 723.230469 144.683594 710.28125 144.683594 694.308594 L 144.683594 491.714844 C 144.613281 475.671875 131.738281 462.71875 115.703125 462.71875 " fill-opacity="1" fill-rule="nonzero"/></g></svg>