<svg xmlns="http://www.w3.org/2000/svg" xmlns:xlink="http://www.w3.org/1999/xlink" width="1080" zoomAndPan="magnify" viewBox="0 0 810 809.999993" height="1080" preserveAspectRatio="xMidYMid meet" version="1.0"><defs><clipPath id="2ad833e025"><path d="M 48 34.828125 L 810 34.828125 L 810 775.773438 L 48 775.773438 Z M 48 34.828125 " clip-rule="nonzero"/></clipPath></defs><path fill="#000000" d="M 514.285156 669.417969 L 20.375 669.417969 C 9.113281 669.417969 0 678.535156 0 689.804688 L 0 752.035156 C 0 763.242188 9.113281 772.355469 20.375 772.355469 L 514.285156 772.355469 C 525.488281 772.355469 534.664062 763.242188 534.664062 752.035156 L 534.664062 689.804688 C 534.664062 678.535156 525.488281 669.417969 514.285156 669.417969 " fill-opacity="1" fill-rule="nonzero"/><g clip-path="url(#2ad833e025)"><path fill="#000000" d="M 420.882812 311.605469 C 420.882812 323.507812 411.265625 333.132812 399.429688 333.132812 L 135.230469 333.132812 C 123.335938 333.132812 113.714844 323.507812 113.714844 311.605469 L 113.714844 133.144531 C 113.714844 121.304688 123.335938 111.683594 135.230469 111.683594 L 399.429688 111.683594 C 411.265625 111.683594 420.882812 121.304688 420.882812 133.144531 Z M 762.664062 463.101562 C 745.074219 421.191406 727.101562 378.144531 718.75 333.320312 C 732.226562 332.371094 742.859375 321.292969 742.859375 307.554688 L 742.859375 200.058594 C 742.859375 199.492188 742.730469 198.921875 742.667969 198.289062 C 742.667969 196.007812 742.289062 193.601562 741.339844 191.324219 L 740.960938 190.5 C 740.832031 190.183594 740.769531 189.929688 740.644531 189.679688 L 681.792969 46.035156 C 678.058594 36.855469 667.617188 32.484375 658.378906 36.222656 C 649.203125 40.019531 644.835938 50.527344 648.570312 59.707031 L 695.460938 174.167969 L 661.667969 174.167969 C 647.429688 174.167969 635.785156 185.816406 635.785156 200.058594 L 635.785156 307.554688 C 635.785156 321.863281 647.429688 333.449219 661.667969 333.449219 L 682.425781 333.449219 C 690.839844 384.21875 710.394531 431.257812 729.570312 477.027344 C 752.476562 531.664062 774.054688 583.257812 774.054688 635.675781 C 774.054688 686.070312 746.277344 739.878906 668.25 739.878906 C 642.179688 739.878906 624.015625 734.054688 612.625 722.089844 C 590.289062 698.605469 592.753906 650.617188 595.351562 599.84375 C 598.515625 538.246094 601.804688 474.496094 561.9375 434.804688 C 543.777344 416.695312 518.84375 406.0625 486.378906 402.390625 L 486.378906 88.511719 C 486.378906 68.824219 470.433594 52.871094 450.753906 52.871094 L 83.910156 52.871094 C 64.230469 52.871094 48.21875 68.824219 48.21875 88.511719 L 48.21875 657.453125 L 486.378906 657.453125 L 486.378906 438.476562 C 508.402344 441.511719 524.980469 448.730469 536.5625 460.253906 C 565.101562 488.675781 562.253906 544.261719 559.46875 598.007812 C 556.621094 654.097656 553.648438 712.152344 586.617188 746.84375 C 605.09375 766.34375 631.800781 775.773438 668.25 775.773438 C 753.046875 775.773438 810 719.496094 810 635.675781 C 810 576.042969 785.953125 518.621094 762.664062 463.101562 " fill-opacity="1" fill-rule="nonzero"/></g></svg>