<svg xmlns="http://www.w3.org/2000/svg" xmlns:xlink="http://www.w3.org/1999/xlink" width="1080" zoomAndPan="magnify" viewBox="0 0 810 809.999993" height="1080" preserveAspectRatio="xMidYMid meet" version="1.0"><defs><clipPath id="620dab75d6"><path d="M 0 13.992188 L 810 13.992188 L 810 796.242188 L 0 796.242188 Z M 0 13.992188 " clip-rule="nonzero"/></clipPath></defs><g clip-path="url(#620dab75d6)"><path fill="#000000" d="M 809.875 728.890625 C 809.875 736.078125 804.042969 741.910156 796.859375 741.910156 C 789.144531 741.910156 782.546875 744.097656 776.574219 747.742188 C 769.933594 751.792969 763.71875 757.765625 757.585938 764.671875 C 750.480469 772.648438 742.464844 780.242188 733.089844 786.035156 C 723.070312 792.230469 711.792969 796.179688 698.898438 796.179688 C 686.023438 796.179688 675.03125 792.535156 665.089844 786.460938 C 655.839844 780.808594 647.824219 773.195312 640.210938 764.652344 C 634.484375 758.210938 628.246094 752.238281 621.507812 748.066406 C 615.414062 744.300781 608.613281 741.890625 600.9375 741.890625 C 593.226562 741.890625 586.625 744.097656 580.65625 747.742188 C 574.015625 751.792969 567.800781 757.765625 561.667969 764.652344 C 554.5625 772.628906 546.542969 780.222656 537.171875 786.015625 C 527.152344 792.210938 515.875 796.160156 502.980469 796.160156 C 490.105469 796.160156 479.113281 792.496094 469.171875 786.441406 C 459.921875 780.789062 451.90625 773.175781 444.292969 764.632812 C 438.5625 758.191406 432.347656 752.21875 425.585938 748.046875 C 419.496094 744.28125 412.691406 741.871094 405.019531 741.871094 C 397.328125 741.871094 390.707031 744.078125 384.734375 747.722656 C 378.015625 751.832031 371.820312 757.785156 365.707031 764.609375 C 358.621094 772.609375 350.625 780.222656 341.253906 786.015625 C 331.230469 792.210938 319.9375 796.160156 307.039062 796.160156 C 294.164062 796.160156 283.171875 792.515625 273.234375 786.441406 C 263.980469 780.789062 255.964844 773.175781 248.355469 764.632812 C 242.625 758.191406 236.390625 752.21875 229.648438 748.046875 C 223.554688 744.28125 216.753906 741.871094 209.082031 741.871094 C 201.386719 741.871094 194.769531 744.078125 188.796875 747.722656 C 182.074219 751.832031 175.882812 757.785156 169.769531 764.609375 C 162.703125 772.609375 154.6875 780.222656 145.3125 786.015625 C 135.292969 792.210938 123.996094 796.160156 111.101562 796.160156 C 98.226562 796.160156 87.234375 792.496094 77.292969 786.441406 C 68.023438 780.789062 60.027344 773.175781 52.414062 764.632812 C 46.6875 758.191406 40.472656 752.21875 33.710938 748.046875 C 27.617188 744.28125 20.8125 741.871094 13.140625 741.871094 C 5.957031 741.871094 0.125 736.039062 0.125 728.851562 C 0.125 721.660156 5.957031 715.828125 13.140625 715.828125 C 26.039062 715.828125 37.3125 719.777344 47.332031 725.972656 C 56.707031 731.765625 64.703125 739.359375 71.828125 747.339844 C 77.984375 754.222656 84.175781 760.21875 90.816406 764.265625 C 96.789062 767.910156 103.386719 770.117188 111.101562 770.117188 C 118.773438 770.117188 125.574219 767.710938 131.667969 763.941406 C 138.410156 759.769531 144.644531 753.796875 150.375 747.359375 L 150.433594 747.359375 C 158.085938 738.773438 166.105469 731.160156 175.273438 725.570312 C 185.195312 719.515625 196.207031 715.847656 209.082031 715.847656 C 221.976562 715.847656 233.253906 719.796875 243.273438 725.996094 C 252.644531 731.785156 260.660156 739.378906 267.769531 747.359375 C 273.902344 754.242188 280.117188 760.238281 286.757812 764.285156 C 292.726562 767.933594 299.328125 770.140625 307.039062 770.140625 C 314.710938 770.140625 321.515625 767.730469 327.628906 763.964844 C 334.371094 759.792969 340.585938 753.816406 346.332031 747.378906 L 346.394531 747.378906 C 354.046875 738.792969 362.0625 731.179688 371.234375 725.589844 C 381.152344 719.535156 392.164062 715.871094 405.039062 715.871094 C 417.9375 715.871094 429.210938 719.820312 439.230469 726.015625 C 448.605469 731.804688 456.601562 739.398438 463.726562 747.378906 C 469.882812 754.261719 476.097656 760.257812 482.714844 764.308594 C 488.6875 767.953125 495.285156 770.160156 503 770.160156 C 510.671875 770.160156 517.453125 767.75 523.566406 763.984375 C 530.308594 759.8125 536.542969 753.839844 542.273438 747.398438 C 549.882812 738.851562 557.878906 731.257812 567.152344 725.609375 C 577.070312 719.554688 588.085938 715.890625 600.960938 715.890625 C 613.855469 715.890625 625.128906 719.839844 635.152344 726.035156 C 644.523438 731.828125 652.539062 739.421875 659.644531 747.398438 C 665.78125 754.285156 671.996094 760.277344 678.632812 764.328125 C 684.605469 767.972656 691.207031 770.179688 698.917969 770.179688 C 706.589844 770.179688 713.394531 767.769531 719.488281 764.003906 C 726.226562 759.832031 732.460938 753.859375 738.191406 747.417969 C 745.804688 738.875 753.820312 731.257812 763.070312 725.609375 C 772.992188 719.554688 784.023438 715.890625 796.878906 715.890625 C 804.042969 715.871094 809.875 721.703125 809.875 728.890625 Z M 0.125 592.265625 C 0.125 585.074219 5.957031 579.242188 13.140625 579.242188 C 26.039062 579.242188 37.3125 583.191406 47.332031 589.390625 C 56.707031 595.179688 64.703125 602.773438 71.828125 610.753906 C 77.984375 617.636719 84.199219 623.632812 90.816406 627.679688 C 96.789062 631.328125 103.386719 633.535156 111.101562 633.535156 C 118.773438 633.535156 125.574219 631.125 131.667969 627.359375 C 136.464844 624.402344 140.980469 620.511719 145.253906 616.199219 L 55.429688 356.253906 C 53.164062 349.632812 56.542969 342.441406 63.003906 339.953125 L 154.929688 304.351562 L 154.929688 184.070312 C 154.929688 176.878906 160.757812 171.046875 167.945312 171.046875 L 203.554688 171.046875 L 203.554688 123.765625 C 203.554688 116.578125 209.382812 110.746094 216.570312 110.746094 L 358.742188 110.746094 L 358.742188 27.011719 C 358.742188 19.824219 364.574219 13.992188 371.761719 13.992188 L 438.21875 13.992188 C 445.40625 13.992188 451.238281 19.824219 451.238281 27.011719 L 451.238281 110.746094 L 593.410156 110.746094 C 600.59375 110.746094 606.425781 116.578125 606.425781 123.765625 L 606.425781 171.046875 L 642.035156 171.046875 C 649.21875 171.046875 655.050781 176.878906 655.050781 184.070312 L 655.050781 303.382812 L 750.238281 339.871094 C 756.9375 342.421875 760.316406 349.933594 757.746094 356.65625 L 667.195312 618.648438 C 670.902344 622.195312 674.6875 625.292969 678.613281 627.679688 C 684.585938 631.328125 691.1875 633.535156 698.898438 633.535156 C 706.570312 633.535156 713.371094 631.125 719.464844 627.359375 C 726.207031 623.1875 732.441406 617.210938 738.171875 610.773438 C 745.78125 602.226562 753.800781 594.632812 763.050781 588.964844 C 772.96875 582.910156 783.984375 579.242188 796.859375 579.242188 C 804.042969 579.242188 809.875 585.074219 809.875 592.265625 C 809.875 599.453125 804.042969 605.285156 796.859375 605.285156 C 789.144531 605.285156 782.546875 607.492188 776.574219 611.136719 C 769.933594 615.1875 763.71875 621.179688 757.585938 628.066406 C 750.480469 636.042969 742.464844 643.636719 733.089844 649.429688 C 723.070312 655.625 711.792969 659.574219 698.898438 659.574219 C 686.023438 659.574219 675.03125 655.910156 665.089844 649.855469 C 655.839844 644.207031 647.824219 636.613281 640.210938 628.046875 C 634.484375 621.605469 628.246094 615.632812 621.507812 611.460938 C 615.394531 607.695312 608.613281 605.285156 600.9375 605.285156 C 593.246094 605.285156 586.625 607.492188 580.65625 611.136719 C 574.015625 615.1875 567.800781 621.179688 561.667969 628.066406 C 554.5625 636.042969 546.542969 643.636719 537.171875 649.429688 C 527.152344 655.625 515.875 659.574219 502.980469 659.574219 C 490.105469 659.574219 479.113281 655.910156 469.171875 649.855469 C 459.921875 644.207031 451.90625 636.613281 444.292969 628.046875 C 438.5625 621.605469 432.347656 615.632812 425.585938 611.460938 C 420.363281 608.222656 414.617188 606.015625 408.257812 605.449219 C 407.226562 605.710938 406.132812 605.871094 405.019531 605.871094 C 403.886719 605.871094 402.792969 605.710938 401.742188 605.449219 C 395.425781 605.972656 389.835938 608.019531 384.734375 611.136719 C 378.015625 615.226562 371.820312 621.203125 365.707031 628.027344 C 358.621094 636.023438 350.625 643.636719 341.253906 649.410156 C 331.230469 655.605469 319.9375 659.554688 307.039062 659.554688 C 294.164062 659.554688 283.171875 655.890625 273.234375 649.835938 C 263.980469 644.183594 255.964844 636.589844 248.355469 628.027344 C 242.625 621.585938 236.390625 615.613281 229.648438 611.441406 C 223.535156 607.675781 216.753906 605.265625 209.082031 605.265625 C 201.386719 605.265625 194.769531 607.472656 188.796875 611.117188 C 182.074219 615.207031 175.882812 621.179688 169.769531 628.003906 C 169.746094 628.027344 169.746094 628.027344 169.726562 628.046875 C 169.667969 628.105469 169.625 628.167969 169.566406 628.226562 C 162.539062 636.144531 154.605469 643.660156 145.3125 649.390625 C 135.292969 655.585938 123.996094 659.535156 111.101562 659.535156 C 98.226562 659.535156 87.234375 655.871094 77.292969 649.816406 C 68.042969 644.164062 60.027344 636.570312 52.414062 628.003906 C 46.6875 621.566406 40.472656 615.59375 33.710938 611.421875 C 27.597656 607.65625 20.8125 605.246094 13.140625 605.246094 C 5.957031 605.285156 0.125 599.453125 0.125 592.265625 Z M 729.265625 359.675781 L 637.902344 324.644531 C 637.539062 324.523438 637.175781 324.378906 636.832031 324.238281 L 418.035156 240.324219 L 418.035156 580.660156 C 425.6875 582.320312 432.714844 585.378906 439.210938 589.390625 C 448.585938 595.179688 456.582031 602.773438 463.707031 610.753906 C 469.839844 617.636719 476.074219 623.632812 482.695312 627.679688 C 488.667969 631.328125 495.265625 633.535156 502.980469 633.535156 C 510.652344 633.535156 517.433594 631.125 523.546875 627.359375 C 530.289062 623.1875 536.523438 617.210938 542.253906 610.773438 C 549.863281 602.226562 557.859375 594.632812 567.132812 588.964844 C 577.050781 582.910156 588.0625 579.242188 600.9375 579.242188 C 613.835938 579.242188 625.109375 583.191406 635.128906 589.390625 C 639.300781 591.960938 643.207031 594.917969 646.871094 598.097656 Z M 384.777344 110.746094 L 425.222656 110.746094 L 425.222656 40.03125 L 384.777344 40.03125 Z M 229.589844 171.046875 L 580.410156 171.046875 L 580.410156 136.785156 L 229.609375 136.785156 L 229.609375 171.046875 Z M 180.984375 294.25 L 399.492188 209.625 C 401.152344 208.835938 403.035156 208.390625 405 208.390625 C 406.964844 208.390625 408.824219 208.835938 410.484375 209.625 L 629.015625 293.417969 L 629.015625 197.089844 L 180.984375 197.089844 Z M 84.015625 359.613281 L 165.660156 595.847656 C 168.734375 593.316406 171.914062 591.007812 175.273438 588.964844 C 185.195312 582.910156 196.207031 579.242188 209.082031 579.242188 C 221.976562 579.242188 233.253906 583.191406 243.273438 589.390625 C 252.644531 595.179688 260.664062 602.773438 267.769531 610.753906 C 273.902344 617.636719 280.136719 623.632812 286.757812 627.679688 C 292.726562 631.328125 299.328125 633.535156 307.039062 633.535156 C 314.714844 633.535156 321.515625 631.125 327.628906 627.359375 C 334.371094 623.1875 340.605469 617.210938 346.332031 610.773438 L 346.394531 610.773438 C 354.046875 602.1875 362.0625 594.574219 371.234375 588.964844 C 377.628906 585.054688 384.511719 582.160156 392.023438 580.582031 L 392.023438 240.363281 L 173.492188 324.96875 C 172.90625 325.25 172.320312 325.472656 171.691406 325.675781 Z M 513.910156 331.832031 C 506.726562 331.832031 500.894531 337.664062 500.894531 344.851562 L 500.894531 345.703125 C 500.894531 352.890625 506.726562 358.722656 513.910156 358.722656 C 521.097656 358.722656 526.929688 352.890625 526.929688 345.703125 L 526.929688 344.851562 C 526.929688 337.664062 521.097656 331.832031 513.910156 331.832031 Z M 568.105469 352.265625 C 560.917969 352.265625 555.085938 358.097656 555.085938 365.285156 L 555.085938 366.136719 C 555.085938 373.324219 560.917969 379.15625 568.105469 379.15625 C 575.289062 379.15625 581.121094 373.324219 581.121094 366.136719 L 581.121094 365.285156 C 581.121094 358.097656 575.289062 352.265625 568.105469 352.265625 Z M 622.296875 373.566406 C 615.109375 373.566406 609.28125 379.398438 609.28125 386.585938 L 609.28125 387.4375 C 609.28125 394.625 615.109375 400.457031 622.296875 400.457031 C 629.484375 400.457031 635.3125 394.625 635.3125 387.4375 L 635.3125 386.585938 C 635.3125 379.398438 629.484375 373.566406 622.296875 373.566406 Z M 296.089844 358.722656 C 303.273438 358.722656 309.105469 352.890625 309.105469 345.703125 L 309.105469 344.851562 C 309.105469 337.664062 303.273438 331.832031 296.089844 331.832031 C 288.902344 331.832031 283.070312 337.664062 283.070312 344.851562 L 283.070312 345.703125 C 283.070312 352.890625 288.902344 358.722656 296.089844 358.722656 Z M 241.894531 379.15625 C 249.082031 379.15625 254.914062 373.324219 254.914062 366.136719 L 254.914062 365.285156 C 254.914062 358.097656 249.082031 352.265625 241.894531 352.265625 C 234.710938 352.265625 228.878906 358.097656 228.878906 365.285156 L 228.878906 366.136719 C 228.878906 373.324219 234.710938 379.15625 241.894531 379.15625 Z M 187.703125 400.4375 C 194.890625 400.4375 200.71875 394.605469 200.71875 387.417969 L 200.71875 386.585938 C 200.71875 379.398438 194.890625 373.566406 187.703125 373.566406 C 180.515625 373.566406 174.6875 379.398438 174.6875 386.585938 L 174.6875 387.4375 C 174.6875 394.605469 180.515625 400.4375 187.703125 400.4375 Z M 187.703125 400.4375 " fill-opacity="1" fill-rule="nonzero"/></g></svg>