<svg xmlns="http://www.w3.org/2000/svg" xmlns:xlink="http://www.w3.org/1999/xlink" width="1080" zoomAndPan="magnify" viewBox="0 0 810 809.999993" height="1080" preserveAspectRatio="xMidYMid meet" version="1.0"><defs><clipPath id="9d2ac6b304"><path d="M 30.335938 18.25 L 779.585938 18.25 L 779.585938 791.5 L 30.335938 791.5 Z M 30.335938 18.25 " clip-rule="nonzero"/></clipPath></defs><path fill="#000000" d="M 695.746094 509.976562 C 695.746094 508.347656 695.101562 506.789062 693.949219 505.640625 L 317.050781 129.257812 C 314.652344 126.867188 310.777344 126.867188 308.378906 129.257812 C 302.175781 135.457031 293.933594 138.867188 285.144531 138.867188 C 276.359375 138.867188 268.113281 135.449219 261.910156 129.257812 C 259.511719 126.859375 255.636719 126.867188 253.238281 129.257812 L 110.765625 271.519531 C 109.613281 272.671875 108.96875 274.230469 108.96875 275.855469 C 108.96875 277.488281 109.613281 279.042969 110.765625 280.199219 C 122.136719 291.574219 123.621094 309.320312 114.277344 322.398438 C 112.539062 324.839844 112.8125 328.179688 114.929688 330.300781 L 425.769531 640.761719 C 425.769531 640.765625 425.769531 640.765625 425.777344 640.765625 L 492.632812 707.484375 C 494.753906 709.601562 498.078125 709.871094 500.5 708.144531 C 513.648438 698.863281 531.429688 700.339844 542.800781 711.652344 C 543.992188 712.84375 545.5625 713.4375 547.125 713.4375 C 548.695312 713.4375 550.265625 712.835938 551.460938 711.648438 L 693.941406 569.390625 C 695.09375 568.238281 695.738281 566.679688 695.738281 565.050781 C 695.738281 563.425781 695.09375 561.859375 693.941406 560.714844 C 681.148438 547.921875 681.148438 527.109375 693.941406 514.320312 C 695.101562 513.164062 695.746094 511.601562 695.746094 509.976562 Z M 509.214844 429.582031 C 509.214844 455.824219 498.984375 480.488281 480.425781 499.011719 C 480.417969 499.019531 480.417969 499.019531 480.414062 499.027344 C 461.882812 517.582031 437.214844 527.808594 410.964844 527.808594 C 384.71875 527.808594 360.03125 517.582031 341.46875 499.019531 C 303.183594 460.75 303.183594 398.421875 341.46875 360.097656 C 360.632812 340.953125 385.804688 331.386719 410.964844 331.386719 C 436.125 331.386719 461.285156 340.960938 480.417969 360.09375 C 498.984375 378.660156 509.214844 403.335938 509.214844 429.582031 Z M 509.214844 429.582031 " fill-opacity="1" fill-rule="nonzero"/><g clip-path="url(#9d2ac6b304)"><path fill="#000000" d="M 778.296875 130.195312 C 777.492188 128.785156 776.15625 127.742188 774.589844 127.3125 L 498.152344 51.324219 L 489.90625 23.269531 C 488.957031 20.027344 485.558594 18.15625 482.296875 19.113281 L 311.960938 69.046875 L 289.503906 46.597656 C 287.105469 44.199219 283.230469 44.199219 280.832031 46.597656 L 236.210938 91.207031 L 163.726562 112.4375 C 162.164062 112.890625 160.851562 113.953125 160.066406 115.378906 C 159.285156 116.804688 159.109375 118.484375 159.5625 120.046875 L 170.375 156.90625 L 32.617188 294.507812 C 31.464844 295.667969 30.820312 297.226562 30.820312 298.855469 C 30.820312 300.488281 31.464844 302.046875 32.617188 303.199219 L 288.328125 558.5625 L 319.152344 663.535156 C 319.152344 663.542969 319.160156 663.546875 319.164062 663.558594 L 343.023438 744.613281 C 343.808594 747.289062 346.25 749.015625 348.90625 749.015625 C 349.476562 749.015625 350.058594 748.9375 350.636719 748.769531 L 449.679688 719.691406 L 519.796875 789.714844 C 520.992188 790.910156 522.5625 791.511719 524.132812 791.511719 C 525.703125 791.511719 527.273438 790.910156 528.46875 789.722656 L 776.695312 541.863281 C 777.847656 540.710938 778.492188 539.152344 778.492188 537.523438 C 778.492188 535.890625 777.847656 534.328125 776.695312 533.179688 L 692.316406 448.910156 L 778.878906 134.863281 C 779.308594 133.285156 779.105469 131.613281 778.296875 130.195312 Z M 479.863281 32.605469 L 564.675781 321.410156 L 528.40625 285.1875 L 475.242188 104.332031 C 474.292969 101.085938 470.902344 99.234375 467.644531 100.171875 C 459.757812 102.480469 451.457031 101.578125 444.246094 97.648438 C 437.03125 93.714844 431.792969 87.226562 429.5 79.378906 C 429.046875 77.820312 427.984375 76.503906 426.554688 75.71875 C 425.125 74.933594 423.433594 74.75 421.886719 75.214844 L 341.664062 98.738281 L 321.847656 78.925781 Z M 173.0625 122.488281 L 218.027344 109.316406 L 180.269531 147.035156 Z M 353.054688 735.261719 L 330.929688 660.101562 C 330.929688 660.097656 330.929688 660.089844 330.929688 660.082031 L 306.414062 576.613281 L 439.78125 709.800781 Z M 524.132812 776.703125 L 45.632812 298.855469 L 243.582031 101.128906 C 243.632812 101.082031 243.699219 101.070312 243.753906 101.019531 L 285.175781 59.609375 L 335.546875 109.972656 C 335.601562 110.027344 335.683594 110.046875 335.746094 110.101562 L 763.679688 537.515625 Z M 683.578125 434.515625 L 682.351562 438.949219 L 663.355469 419.976562 L 725.640625 194.03125 C 726.070312 192.460938 725.867188 190.785156 725.058594 189.371094 C 724.253906 187.960938 722.917969 186.917969 721.351562 186.488281 C 713.769531 184.402344 707.441406 179.484375 703.546875 172.636719 C 699.652344 165.792969 698.652344 157.863281 700.738281 150.308594 C 701.167969 148.738281 700.964844 147.066406 700.15625 145.648438 C 699.351562 144.230469 698.019531 143.195312 696.449219 142.761719 L 519.074219 93.949219 C 516.003906 93.113281 512.890625 94.808594 511.78125 97.734375 L 502.210938 65.152344 L 765.421875 137.503906 Z M 683.578125 434.515625 " fill-opacity="1" fill-rule="nonzero"/></g><path fill="#000000" d="M 450.867188 381.019531 L 440.097656 392.015625 C 435.804688 389.316406 430.867188 387.820312 425.691406 387.820312 C 418.578125 387.820312 411.632812 390.691406 406.640625 395.6875 C 401.605469 400.722656 398.710938 407.695312 398.710938 414.808594 C 398.710938 421.914062 401.605469 428.886719 406.640625 433.921875 C 409.394531 436.675781 410.976562 440.457031 410.976562 444.296875 C 410.976562 448.191406 409.425781 451.90625 406.609375 454.769531 C 401.132812 460.324219 391.253906 460.324219 385.78125 454.769531 C 383.003906 451.957031 381.476562 448.234375 381.476562 444.296875 C 381.476562 440.414062 383.035156 436.632812 385.75 433.929688 C 388.148438 431.53125 388.148438 427.65625 385.757812 425.25 C 383.359375 422.851562 379.476562 422.859375 377.078125 425.246094 C 372.078125 430.242188 369.207031 437.183594 369.207031 444.296875 C 369.207031 449.398438 370.675781 454.269531 373.304688 458.523438 L 362.34375 469.53125 C 359.953125 471.933594 359.964844 475.808594 362.363281 478.207031 C 363.558594 479.398438 365.128906 479.992188 366.695312 479.992188 C 368.269531 479.992188 369.839844 479.382812 371.042969 478.1875 L 381.960938 467.230469 C 386.179688 469.867188 391.050781 471.34375 396.203125 471.34375 C 403.488281 471.34375 410.296875 468.519531 415.355469 463.378906 C 420.445312 458.203125 423.25 451.433594 423.25 444.304688 C 423.25 437.238281 420.355469 430.292969 415.320312 425.257812 C 412.566406 422.503906 410.984375 418.695312 410.984375 414.8125 C 410.984375 410.933594 412.566406 407.125 415.324219 404.363281 C 420.773438 398.894531 430.476562 398.785156 436.285156 404.5 C 441.902344 410.25 441.839844 419.558594 436.148438 425.257812 C 433.75 427.65625 433.75 431.53125 436.148438 433.925781 C 438.546875 436.324219 442.421875 436.324219 444.820312 433.925781 C 453.714844 425.035156 455.027344 411.347656 448.679688 400.808594 L 459.652344 389.605469 C 462.019531 387.183594 461.984375 383.300781 459.554688 380.933594 C 457.136719 378.566406 453.253906 378.597656 450.867188 381.019531 Z M 450.867188 381.019531 " fill-opacity="1" fill-rule="nonzero"/></svg>