<svg xmlns="http://www.w3.org/2000/svg" xmlns:xlink="http://www.w3.org/1999/xlink" width="1080" zoomAndPan="magnify" viewBox="0 0 810 809.999993" height="1080" preserveAspectRatio="xMidYMid meet" version="1.0"><path fill="#000000" d="M 41.527344 768.398438 C 1.207031 728.078125 1.199219 662.816406 41.527344 622.488281 L 304.390625 359.625 C 310.421875 353.597656 320.191406 353.597656 326.222656 359.625 L 450.300781 483.699219 C 456.324219 489.726562 456.328125 499.503906 450.300781 505.53125 L 187.433594 768.398438 C 147.117188 808.710938 81.851562 808.722656 41.527344 768.398438 Z M 315.308594 392.371094 L 63.359375 644.324219 C 35.105469 672.570312 35.101562 718.308594 63.359375 746.5625 C 91.613281 774.820312 137.34375 774.824219 165.601562 746.566406 L 417.550781 494.617188 Z M 315.308594 392.371094 " fill-opacity="1" fill-rule="nonzero"/><path fill="#000000" d="M 376.78125 557.214844 L 252.707031 433.140625 C 246.679688 427.113281 246.679688 417.335938 252.707031 411.308594 C 258.738281 405.28125 268.511719 405.28125 274.542969 411.308594 L 398.613281 535.382812 C 404.644531 541.410156 404.644531 551.183594 398.613281 557.214844 C 392.582031 563.242188 382.8125 563.242188 376.78125 557.214844 Z M 376.78125 557.214844 " fill-opacity="1" fill-rule="nonzero"/><path fill="#000000" d="M 322.203125 611.792969 L 198.128906 487.71875 C 192.101562 481.691406 192.101562 471.917969 198.128906 465.886719 C 204.160156 459.859375 213.929688 459.859375 219.960938 465.886719 L 344.035156 589.960938 C 350.066406 595.988281 350.066406 605.761719 344.035156 611.792969 C 338.003906 617.824219 328.234375 617.820312 322.203125 611.792969 Z M 322.203125 611.792969 " fill-opacity="1" fill-rule="nonzero"/><path fill="#000000" d="M 400.894531 477.960938 L 331.964844 409.03125 C 325.9375 403.003906 325.9375 393.226562 331.964844 387.199219 L 590.566406 128.59375 L 603.199219 90.695312 C 604.230469 87.601562 606.21875 84.910156 608.871094 83.015625 L 705.375 14.082031 C 711.515625 9.699219 719.925781 10.390625 725.265625 15.730469 L 794.195312 84.660156 C 799.53125 89.996094 800.226562 98.40625 795.839844 104.546875 L 726.910156 201.050781 C 725.015625 203.707031 722.324219 205.691406 719.230469 206.722656 L 681.328125 219.355469 L 422.726562 477.960938 C 416.707031 483.976562 406.9375 484 400.894531 477.960938 Z M 364.710938 398.113281 L 411.808594 445.210938 L 662.074219 194.949219 C 663.769531 193.253906 665.832031 191.976562 668.105469 191.21875 L 704.703125 179.023438 L 763.113281 97.246094 L 712.679688 46.808594 L 630.902344 105.222656 L 618.703125 141.816406 C 617.945312 144.089844 616.667969 146.15625 614.976562 147.851562 Z M 364.710938 398.113281 " fill-opacity="1" fill-rule="nonzero"/><path fill="#000000" d="M 571.859375 759.660156 C 534.960938 722.761719 523.246094 666.988281 541.535156 618.609375 L 400.890625 477.964844 C 394.863281 471.9375 394.863281 462.160156 400.890625 456.132812 C 406.921875 450.105469 416.691406 450.105469 422.722656 456.132812 L 568.824219 602.230469 C 574.480469 607.964844 576.027344 616.648438 572.738281 623.910156 C 555.492188 662.253906 563.90625 708.046875 593.691406 737.832031 C 618.703125 762.84375 654.570312 772.734375 688.144531 765.230469 L 641.050781 718.140625 C 635.023438 712.113281 635.023438 702.339844 641.050781 696.308594 L 696.414062 640.945312 C 702.445312 634.917969 712.214844 634.917969 718.246094 640.945312 L 765.335938 688.03125 C 772.828125 654.460938 762.945312 618.589844 737.941406 593.585938 C 708.152344 563.796875 662.355469 555.386719 623.988281 572.644531 C 616.75 575.921875 608.074219 574.371094 602.410156 568.785156 L 456.238281 422.617188 C 450.210938 416.585938 450.210938 406.8125 456.238281 400.78125 C 462.269531 394.757812 472.042969 394.757812 478.074219 400.78125 L 618.71875 541.429688 C 667.117188 523.136719 722.875 534.851562 759.769531 571.75 C 799.496094 611.480469 809.925781 672.25 785.726562 722.96875 C 781.15625 732.550781 768.433594 734.789062 760.875 727.238281 L 707.332031 673.691406 L 673.800781 707.226562 L 727.34375 760.769531 C 734.863281 768.292969 732.699219 781.023438 723.078125 785.617188 C 672.144531 809.9375 611.425781 799.230469 571.859375 759.660156 Z M 571.859375 759.660156 " fill-opacity="1" fill-rule="nonzero"/><path fill="#000000" d="M 331.957031 409.03125 L 191.3125 268.382812 C 142.910156 286.667969 87.152344 274.957031 50.261719 238.0625 C 10.523438 198.324219 0.09375 137.554688 24.308594 86.84375 C 28.890625 77.246094 41.621094 75.042969 49.15625 82.578125 L 102.699219 136.125 L 136.234375 102.59375 L 82.6875 49.046875 C 75.167969 41.527344 77.332031 28.789062 86.957031 24.199219 C 137.675781 0 198.445312 10.425781 238.171875 50.152344 C 275.074219 87.058594 286.792969 142.828125 268.496094 191.207031 L 409.140625 331.851562 C 415.171875 337.878906 415.171875 347.65625 409.140625 353.683594 C 403.113281 359.714844 393.339844 359.714844 387.308594 353.683594 L 241.210938 207.585938 C 235.550781 201.847656 234.003906 193.164062 237.292969 185.90625 C 254.542969 147.566406 246.128906 101.773438 216.339844 71.988281 C 191.335938 46.984375 155.46875 37.097656 121.890625 44.589844 L 168.980469 91.679688 C 175.007812 97.707031 175.007812 107.484375 168.980469 113.511719 L 113.617188 168.875 C 110.71875 171.769531 106.792969 173.398438 102.699219 173.398438 C 98.605469 173.398438 94.679688 171.769531 91.785156 168.875 L 44.691406 121.78125 C 37.191406 155.347656 47.078125 191.21875 72.09375 216.230469 C 101.875 246.015625 147.667969 254.429688 186.042969 237.167969 C 193.277344 233.898438 201.957031 235.445312 207.617188 241.027344 L 353.792969 387.199219 C 359.820312 393.230469 359.820312 403.003906 353.792969 409.035156 C 347.757812 415.0625 337.988281 415.0625 331.957031 409.03125 Z M 331.957031 409.03125 " fill-opacity="1" fill-rule="nonzero"/></svg>