<svg xmlns="http://www.w3.org/2000/svg" xmlns:xlink="http://www.w3.org/1999/xlink" width="1080" zoomAndPan="magnify" viewBox="0 0 810 809.999993" height="1080" preserveAspectRatio="xMidYMid meet" version="1.0"><defs><clipPath id="8597289f77"><path d="M 171 139.402344 L 810 139.402344 L 810 670.71875 L 171 670.71875 Z M 171 139.402344 " clip-rule="nonzero"/></clipPath></defs><path fill="#000000" d="M 202.839844 407.726562 C 202.839844 401.890625 198.113281 397.15625 192.273438 397.15625 L 79.867188 397.15625 C 74.027344 397.15625 69.300781 401.890625 69.300781 407.726562 C 69.300781 413.5625 74.027344 418.296875 79.867188 418.296875 L 192.273438 418.296875 C 198.113281 418.296875 202.839844 413.5625 202.839844 407.726562 " fill-opacity="1" fill-rule="nonzero"/><path fill="#000000" d="M 192.273438 229.835938 L 79.867188 229.835938 C 74.027344 229.835938 69.300781 234.570312 69.300781 240.410156 C 69.300781 246.246094 74.027344 250.980469 79.867188 250.980469 L 192.273438 250.980469 C 198.113281 250.980469 202.839844 246.246094 202.839844 240.410156 C 202.839844 234.570312 198.113281 229.835938 192.273438 229.835938 " fill-opacity="1" fill-rule="nonzero"/><path fill="#000000" d="M 10.566406 334.636719 L 149.734375 334.636719 C 155.570312 334.636719 160.296875 329.902344 160.296875 324.0625 C 160.296875 318.226562 155.570312 313.492188 149.734375 313.492188 L 10.566406 313.492188 C 4.726562 313.492188 0 318.226562 0 324.0625 C 0 329.902344 4.726562 334.636719 10.566406 334.636719 " fill-opacity="1" fill-rule="nonzero"/><path fill="#000000" d="M 691.746094 573.972656 C 679.855469 573.972656 670.210938 583.613281 670.210938 595.515625 C 670.210938 607.417969 679.855469 617.058594 691.746094 617.058594 C 703.644531 617.058594 713.289062 607.417969 713.289062 595.515625 C 713.289062 583.613281 703.644531 573.972656 691.746094 573.972656 " fill-opacity="1" fill-rule="nonzero"/><path fill="#000000" d="M 289.71875 573.972656 C 277.824219 573.972656 268.1875 583.613281 268.1875 595.515625 C 268.1875 607.417969 277.824219 617.058594 289.71875 617.058594 C 301.617188 617.058594 311.253906 607.417969 311.253906 595.515625 C 311.253906 583.613281 301.617188 573.972656 289.71875 573.972656 " fill-opacity="1" fill-rule="nonzero"/><path fill="#000000" d="M 735.941406 448 L 616.371094 448 L 616.371094 328.382812 L 657.71875 328.382812 L 735.941406 406.644531 Z M 595.234375 307.238281 L 595.234375 469.136719 L 757.078125 469.136719 L 757.078125 397.886719 L 666.464844 307.238281 L 595.234375 307.238281 " fill-opacity="1" fill-rule="nonzero"/><g clip-path="url(#8597289f77)"><path fill="#000000" d="M 788.863281 574.722656 C 788.863281 580.195312 784.410156 584.652344 778.941406 584.652344 L 766.050781 584.652344 C 760.761719 548.328125 729.511719 520.3125 691.746094 520.3125 C 653.988281 520.3125 622.730469 548.328125 617.441406 584.652344 L 364.019531 584.652344 C 358.730469 548.328125 327.480469 520.3125 289.714844 520.3125 C 251.96875 520.3125 220.726562 548.316406 215.421875 584.632812 C 202.824219 584.527344 192.597656 574.253906 192.597656 561.625 L 192.597656 505.25 L 563.046875 505.25 L 563.046875 275.441406 L 642.363281 275.441406 C 666.757812 275.441406 689.683594 284.941406 706.941406 302.199219 L 762.121094 357.394531 C 779.367188 374.648438 788.863281 397.589844 788.863281 421.996094 Z M 691.746094 649.582031 C 661.945312 649.582031 637.699219 625.332031 637.699219 595.515625 C 637.699219 565.707031 661.945312 541.453125 691.746094 541.453125 C 721.550781 541.453125 745.792969 565.707031 745.792969 595.515625 C 745.792969 625.332031 721.550781 649.582031 691.746094 649.582031 Z M 289.714844 649.582031 C 259.914062 649.582031 235.679688 625.332031 235.679688 595.515625 C 235.679688 565.707031 259.914062 541.453125 289.714844 541.453125 C 319.511719 541.453125 343.761719 565.707031 343.761719 595.515625 C 343.761719 625.332031 319.511719 649.582031 289.714844 649.582031 Z M 721.882812 287.253906 C 700.644531 266.003906 672.402344 254.304688 642.363281 254.304688 L 563.046875 254.304688 L 563.046875 172.832031 C 563.046875 154.390625 548.054688 139.394531 529.613281 139.394531 L 204.886719 139.394531 C 186.457031 139.394531 171.46875 154.390625 171.46875 172.832031 L 171.46875 202.355469 C 171.46875 208.191406 176.1875 212.921875 182.027344 212.921875 C 187.871094 212.921875 192.597656 208.191406 192.597656 202.355469 L 192.597656 172.832031 C 192.597656 166.050781 198.109375 160.53125 204.886719 160.53125 L 529.613281 160.53125 C 536.390625 160.53125 541.914062 166.050781 541.914062 172.832031 L 541.914062 484.113281 L 192.597656 484.113281 L 192.597656 450.929688 C 192.597656 445.09375 187.871094 440.359375 182.027344 440.359375 C 176.1875 440.359375 171.46875 445.09375 171.46875 450.929688 L 171.46875 561.625 C 171.46875 585.882812 191.121094 605.605469 215.328125 605.765625 C 220.351562 642.386719 251.746094 670.71875 289.714844 670.71875 C 327.683594 670.71875 359.078125 642.40625 364.113281 605.796875 L 617.351562 605.796875 C 622.390625 642.40625 653.785156 670.71875 691.746094 670.71875 C 729.714844 670.71875 761.109375 642.40625 766.144531 605.796875 L 778.941406 605.796875 C 796.070312 605.796875 810 591.855469 810 574.722656 L 810 421.996094 C 810 391.945312 798.300781 363.699219 777.0625 342.449219 L 721.882812 287.253906 " fill-opacity="1" fill-rule="nonzero"/></g></svg>