<svg xmlns="http://www.w3.org/2000/svg" xmlns:xlink="http://www.w3.org/1999/xlink" width="1080" zoomAndPan="magnify" viewBox="0 0 810 809.999993" height="1080" preserveAspectRatio="xMidYMid meet" version="1.0"><path fill="#000000" d="M 686.65625 250.671875 C 712.570312 297.804688 726.207031 350.71875 726.207031 405 C 726.207031 410.019531 725.824219 415.09375 725.605469 420.164062 C 730.351562 419.457031 735.207031 418.964844 740.171875 418.964844 C 744.699219 418.964844 749.171875 419.402344 753.539062 420.003906 C 753.757812 414.984375 754.136719 409.964844 754.136719 405 C 754.136719 341.335938 736.789062 279.472656 704.113281 225.25 C 700.074219 232.449219 695.546875 239.378906 690.367188 245.925781 L 686.65625 250.671875 " fill-opacity="1" fill-rule="nonzero"/><path fill="#000000" d="M 270.527344 113.304688 C 311.441406 94.375 355.140625 84.503906 400.746094 83.902344 C 404.183594 74.246094 408.4375 64.917969 413.511719 56.136719 C 359.394531 54.878906 304.40625 66.445312 255.363281 89.683594 C 261.472656 96.777344 266.597656 104.6875 270.527344 113.304688 " fill-opacity="1" fill-rule="nonzero"/><path fill="#000000" d="M 127.164062 243.960938 L 109.105469 220.011719 C 76.863281 271.507812 58.753906 330.152344 56.351562 391.035156 L 84.285156 391.035156 C 86.519531 338.992188 101.085938 288.746094 127.164062 243.960938 " fill-opacity="1" fill-rule="nonzero"/><path fill="#000000" d="M 624.574219 639.304688 L 632.210938 669.800781 C 653.050781 651.90625 671.597656 631.777344 687.636719 609.628906 L 670.015625 586.117188 C 656.816406 605.425781 641.648438 623.265625 624.574219 639.304688 " fill-opacity="1" fill-rule="nonzero"/><path fill="#000000" d="M 391.035156 418.964844 L 279.308594 418.964844 L 279.308594 525.34375 L 209.484375 490.429688 L 139.65625 525.34375 L 139.65625 418.964844 L 27.929688 418.964844 L 27.929688 698.277344 L 65.410156 698.277344 C 81.175781 665.324219 114.722656 642.414062 153.621094 642.414062 C 192.515625 642.414062 226.066406 665.324219 241.832031 698.277344 L 391.035156 698.277344 L 391.035156 418.964844 " fill-opacity="1" fill-rule="nonzero"/><path fill="#000000" d="M 250.234375 726.207031 C 250.941406 730.789062 251.378906 735.425781 251.378906 740.171875 C 251.378906 744.917969 250.941406 749.554688 250.234375 754.136719 L 392.179688 754.136719 C 391.472656 749.554688 391.035156 744.917969 391.035156 740.171875 C 391.035156 735.425781 391.472656 730.789062 392.179688 726.207031 L 250.234375 726.207031 " fill-opacity="1" fill-rule="nonzero"/><path fill="#000000" d="M 589.605469 614.484375 L 502.757812 614.484375 C 487.375 614.484375 474.828125 601.9375 474.828125 586.550781 L 474.828125 558.621094 C 474.828125 543.238281 487.375 530.691406 502.757812 530.691406 L 568.660156 530.691406 L 564.347656 513.34375 C 562.765625 507.121094 557.203125 502.757812 550.765625 502.757812 L 418.964844 502.757812 L 418.964844 671.871094 C 436.75 653.707031 461.460938 642.414062 488.792969 642.414062 C 527.6875 642.414062 561.238281 665.324219 577.003906 698.277344 L 610.554688 698.277344 L 589.605469 614.484375 " fill-opacity="1" fill-rule="nonzero"/><path fill="#000000" d="M 0 726.207031 L 0 754.136719 L 57.007812 754.136719 C 56.296875 749.554688 55.863281 744.917969 55.863281 740.171875 C 55.863281 735.425781 56.296875 730.789062 57.007812 726.207031 L 0 726.207031 " fill-opacity="1" fill-rule="nonzero"/><path fill="#000000" d="M 153.621094 768.101562 C 138.183594 768.101562 125.691406 755.609375 125.691406 740.171875 C 125.691406 724.734375 138.183594 712.242188 153.621094 712.242188 C 169.058594 712.242188 181.550781 724.734375 181.550781 740.171875 C 181.550781 755.609375 169.058594 768.101562 153.621094 768.101562 Z M 153.621094 670.34375 C 115.105469 670.34375 83.792969 701.65625 83.792969 740.171875 C 83.792969 778.6875 115.105469 810 153.621094 810 C 192.136719 810 223.449219 778.6875 223.449219 740.171875 C 223.449219 701.65625 192.136719 670.34375 153.621094 670.34375 " fill-opacity="1" fill-rule="nonzero"/><path fill="#000000" d="M 167.585938 480.171875 L 209.484375 459.226562 L 251.378906 480.171875 L 251.378906 418.964844 L 167.585938 418.964844 L 167.585938 480.171875 " fill-opacity="1" fill-rule="nonzero"/><path fill="#000000" d="M 488.792969 768.101562 C 473.355469 768.101562 460.863281 755.609375 460.863281 740.171875 C 460.863281 724.734375 473.355469 712.242188 488.792969 712.242188 C 504.230469 712.242188 516.722656 724.734375 516.722656 740.171875 C 516.722656 755.609375 504.230469 768.101562 488.792969 768.101562 Z M 488.792969 670.34375 C 450.277344 670.34375 418.964844 701.65625 418.964844 740.171875 C 418.964844 778.6875 450.277344 810 488.792969 810 C 527.308594 810 558.621094 778.6875 558.621094 740.171875 C 558.621094 701.65625 527.308594 670.34375 488.792969 670.34375 " fill-opacity="1" fill-rule="nonzero"/><path fill="#000000" d="M 502.757812 586.550781 L 582.625 586.550781 L 575.640625 558.621094 L 502.757812 558.621094 L 502.757812 586.550781 " fill-opacity="1" fill-rule="nonzero"/><path fill="#000000" d="M 586.550781 740.171875 C 586.550781 744.917969 586.117188 749.554688 585.40625 754.136719 L 614.484375 754.136719 L 614.484375 726.207031 L 585.40625 726.207031 C 586.117188 730.789062 586.550781 735.425781 586.550781 740.171875 " fill-opacity="1" fill-rule="nonzero"/><path fill="#000000" d="M 181.550781 125.691406 C 196.988281 125.691406 209.484375 138.183594 209.484375 153.621094 C 209.484375 169.058594 196.988281 181.550781 181.550781 181.550781 C 166.113281 181.550781 153.621094 169.058594 153.621094 153.621094 C 153.621094 138.183594 166.113281 125.691406 181.550781 125.691406 Z M 181.550781 269.980469 L 237.414062 195.515625 C 246.414062 183.515625 251.378906 168.621094 251.378906 153.621094 C 251.378906 115.105469 220.066406 83.792969 181.550781 83.792969 C 143.039062 83.792969 111.722656 115.105469 111.722656 153.621094 C 111.722656 168.621094 116.6875 183.515625 125.691406 195.515625 L 181.550781 269.980469 " fill-opacity="1" fill-rule="nonzero"/><path fill="#000000" d="M 740.171875 544.65625 C 724.734375 544.65625 712.242188 532.164062 712.242188 516.722656 C 712.242188 501.285156 724.734375 488.792969 740.171875 488.792969 C 755.609375 488.792969 768.101562 501.285156 768.101562 516.722656 C 768.101562 532.164062 755.609375 544.65625 740.171875 544.65625 Z M 740.171875 446.898438 C 701.65625 446.898438 670.34375 478.210938 670.34375 516.722656 C 670.34375 531.726562 675.308594 546.617188 684.308594 558.621094 L 740.171875 633.085938 L 796.035156 558.621094 C 805.035156 546.617188 810 531.726562 810 516.722656 C 810 478.210938 778.6875 446.898438 740.171875 446.898438 " fill-opacity="1" fill-rule="nonzero"/><path fill="#000000" d="M 558.621094 41.898438 C 612.628906 41.898438 656.378906 85.648438 656.378906 139.65625 C 656.378906 193.664062 612.628906 237.414062 558.621094 237.414062 C 504.613281 237.414062 460.863281 193.664062 460.863281 139.65625 C 460.863281 85.648438 504.613281 41.898438 558.621094 41.898438 Z M 558.621094 368.449219 L 668.433594 228.628906 C 687.691406 204.191406 698.277344 173.53125 698.277344 142.382812 L 698.277344 139.65625 C 698.277344 62.625 635.648438 0 558.621094 0 C 481.59375 0 418.964844 62.625 418.964844 139.65625 L 418.964844 142.382812 C 418.964844 173.53125 429.546875 204.191406 448.804688 228.628906 L 558.621094 368.449219 " fill-opacity="1" fill-rule="nonzero"/><path fill="#000000" d="M 307.242188 335.171875 L 307.242188 363.101562 L 335.171875 363.101562 L 335.171875 335.171875 L 307.242188 335.171875 " fill-opacity="1" fill-rule="nonzero"/><path fill="#000000" d="M 391.035156 335.171875 L 363.101562 335.171875 L 363.101562 363.101562 L 391.035156 363.101562 L 391.035156 335.171875 " fill-opacity="1" fill-rule="nonzero"/><path fill="#000000" d="M 446.898438 335.171875 L 418.964844 335.171875 L 418.964844 363.101562 L 446.898438 363.101562 L 446.898438 335.171875 " fill-opacity="1" fill-rule="nonzero"/></svg>