<svg xmlns="http://www.w3.org/2000/svg" xmlns:xlink="http://www.w3.org/1999/xlink" width="1080" zoomAndPan="magnify" viewBox="0 0 810 809.999993" height="1080" preserveAspectRatio="xMidYMid meet" version="1.0"><defs><clipPath id="128dae1813"><path d="M 653 389 L 670 389 L 670 737.886719 L 653 737.886719 Z M 653 389 " clip-rule="nonzero"/></clipPath><clipPath id="4e10cc415e"><path d="M 131 595 L 149 595 L 149 737.886719 L 131 737.886719 Z M 131 595 " clip-rule="nonzero"/></clipPath><clipPath id="fc7af03d0d"><path d="M 479 500 L 497 500 L 497 737.886719 L 479 737.886719 Z M 479 500 " clip-rule="nonzero"/></clipPath><clipPath id="a80a55dfe3"><path d="M 566 434 L 584 434 L 584 737.886719 L 566 737.886719 Z M 566 434 " clip-rule="nonzero"/></clipPath><clipPath id="0f20a9ba6c"><path d="M 218 520 L 236 520 L 236 737.886719 L 218 737.886719 Z M 218 520 " clip-rule="nonzero"/></clipPath><clipPath id="467611bb70"><path d="M 392 557 L 410 557 L 410 737.886719 L 392 737.886719 Z M 392 557 " clip-rule="nonzero"/></clipPath><clipPath id="106375f28b"><path d="M 305 469 L 323 469 L 323 737.886719 L 305 737.886719 Z M 305 469 " clip-rule="nonzero"/></clipPath></defs><g clip-path="url(#128dae1813)"><path fill="#000000" d="M 669.9375 398.011719 L 669.9375 728.90625 C 669.9375 729.460938 669.882812 730.007812 669.773438 730.550781 C 669.667969 731.09375 669.507812 731.621094 669.296875 732.132812 C 669.082031 732.644531 668.824219 733.132812 668.515625 733.589844 C 668.207031 734.050781 667.859375 734.476562 667.464844 734.871094 C 667.074219 735.261719 666.648438 735.609375 666.1875 735.917969 C 665.726562 736.226562 665.242188 736.484375 664.730469 736.699219 C 664.21875 736.910156 663.6875 737.070312 663.144531 737.179688 C 662.601562 737.285156 662.054688 737.339844 661.5 737.339844 C 660.945312 737.339844 660.398438 737.285156 659.855469 737.179688 C 659.308594 737.070312 658.78125 736.910156 658.269531 736.699219 C 657.757812 736.484375 657.273438 736.226562 656.8125 735.917969 C 656.351562 735.609375 655.925781 735.261719 655.535156 734.871094 C 655.140625 734.476562 654.792969 734.050781 654.484375 733.589844 C 654.175781 733.132812 653.917969 732.644531 653.703125 732.132812 C 653.492188 731.621094 653.332031 731.09375 653.222656 730.550781 C 653.117188 730.007812 653.0625 729.460938 653.0625 728.90625 L 653.0625 398.011719 C 653.0625 397.460938 653.117188 396.910156 653.222656 396.367188 C 653.332031 395.824219 653.492188 395.296875 653.703125 394.785156 C 653.917969 394.273438 654.175781 393.789062 654.484375 393.328125 C 654.792969 392.867188 655.140625 392.441406 655.535156 392.050781 C 655.925781 391.65625 656.351562 391.308594 656.8125 391 C 657.273438 390.691406 657.757812 390.433594 658.269531 390.21875 C 658.78125 390.007812 659.308594 389.847656 659.855469 389.742188 C 660.398438 389.632812 660.945312 389.578125 661.5 389.578125 C 662.054688 389.578125 662.601562 389.632812 663.144531 389.742188 C 663.6875 389.847656 664.21875 390.007812 664.730469 390.21875 C 665.242188 390.433594 665.726562 390.691406 666.1875 391 C 666.648438 391.308594 667.074219 391.65625 667.464844 392.050781 C 667.859375 392.441406 668.207031 392.867188 668.515625 393.328125 C 668.824219 393.789062 669.082031 394.273438 669.296875 394.785156 C 669.507812 395.296875 669.667969 395.824219 669.773438 396.367188 C 669.882812 396.910156 669.9375 397.460938 669.9375 398.011719 Z M 669.9375 398.011719 " fill-opacity="1" fill-rule="nonzero"/></g><g clip-path="url(#4e10cc415e)"><path fill="#000000" d="M 148.230469 604.367188 L 148.230469 728.90625 C 148.230469 729.460938 148.175781 730.007812 148.066406 730.550781 C 147.960938 731.09375 147.800781 731.621094 147.585938 732.132812 C 147.375 732.644531 147.117188 733.132812 146.808594 733.589844 C 146.5 734.050781 146.152344 734.476562 145.757812 734.871094 C 145.367188 735.261719 144.941406 735.609375 144.480469 735.917969 C 144.019531 736.226562 143.53125 736.484375 143.019531 736.699219 C 142.507812 736.910156 141.980469 737.070312 141.4375 737.179688 C 140.894531 737.285156 140.347656 737.339844 139.792969 737.339844 C 139.238281 737.339844 138.691406 737.285156 138.144531 737.179688 C 137.601562 737.070312 137.074219 736.910156 136.5625 736.699219 C 136.050781 736.484375 135.566406 736.226562 135.105469 735.917969 C 134.644531 735.609375 134.21875 735.261719 133.828125 734.871094 C 133.433594 734.476562 133.085938 734.050781 132.777344 733.589844 C 132.46875 733.132812 132.210938 732.644531 131.996094 732.132812 C 131.785156 731.621094 131.625 731.09375 131.515625 730.550781 C 131.410156 730.007812 131.355469 729.460938 131.355469 728.90625 L 131.355469 604.367188 C 131.355469 603.8125 131.410156 603.265625 131.515625 602.722656 C 131.625 602.179688 131.785156 601.652344 131.996094 601.140625 C 132.210938 600.628906 132.46875 600.140625 132.777344 599.679688 C 133.085938 599.222656 133.433594 598.796875 133.828125 598.402344 C 134.21875 598.011719 134.644531 597.660156 135.105469 597.355469 C 135.566406 597.046875 136.050781 596.785156 136.5625 596.574219 C 137.074219 596.363281 137.601562 596.203125 138.144531 596.09375 C 138.691406 595.988281 139.238281 595.933594 139.792969 595.933594 C 140.347656 595.933594 140.894531 595.988281 141.4375 596.09375 C 141.980469 596.203125 142.507812 596.363281 143.019531 596.574219 C 143.53125 596.785156 144.019531 597.046875 144.480469 597.355469 C 144.941406 597.660156 145.367188 598.011719 145.757812 598.402344 C 146.152344 598.796875 146.5 599.222656 146.808594 599.679688 C 147.117188 600.140625 147.375 600.628906 147.585938 601.140625 C 147.800781 601.652344 147.960938 602.179688 148.066406 602.722656 C 148.175781 603.265625 148.230469 603.8125 148.230469 604.367188 Z M 148.230469 604.367188 " fill-opacity="1" fill-rule="nonzero"/></g><g clip-path="url(#fc7af03d0d)"><path fill="#000000" d="M 496.023438 509.054688 L 496.023438 728.90625 C 496.023438 729.460938 495.96875 730.007812 495.863281 730.550781 C 495.753906 731.09375 495.59375 731.621094 495.382812 732.132812 C 495.167969 732.644531 494.910156 733.132812 494.601562 733.589844 C 494.292969 734.050781 493.945312 734.476562 493.550781 734.871094 C 493.160156 735.261719 492.734375 735.609375 492.273438 735.917969 C 491.8125 736.226562 491.328125 736.484375 490.816406 736.699219 C 490.304688 736.910156 489.777344 737.070312 489.230469 737.179688 C 488.6875 737.285156 488.140625 737.339844 487.585938 737.339844 C 487.03125 737.339844 486.484375 737.285156 485.941406 737.179688 C 485.398438 737.070312 484.867188 736.910156 484.355469 736.699219 C 483.84375 736.484375 483.359375 736.226562 482.898438 735.917969 C 482.4375 735.609375 482.011719 735.261719 481.621094 734.871094 C 481.226562 734.476562 480.878906 734.050781 480.570312 733.589844 C 480.261719 733.132812 480.003906 732.644531 479.789062 732.132812 C 479.578125 731.621094 479.417969 731.09375 479.3125 730.550781 C 479.203125 730.007812 479.148438 729.460938 479.148438 728.90625 L 479.148438 509.054688 C 479.148438 508.503906 479.203125 507.953125 479.3125 507.410156 C 479.417969 506.867188 479.578125 506.339844 479.789062 505.828125 C 480.003906 505.316406 480.261719 504.832031 480.570312 504.371094 C 480.878906 503.910156 481.226562 503.484375 481.621094 503.089844 C 482.011719 502.699219 482.4375 502.351562 482.898438 502.042969 C 483.359375 501.734375 483.84375 501.476562 484.355469 501.261719 C 484.867188 501.050781 485.398438 500.890625 485.941406 500.785156 C 486.484375 500.675781 487.03125 500.621094 487.585938 500.621094 C 488.140625 500.621094 488.6875 500.675781 489.230469 500.785156 C 489.777344 500.890625 490.304688 501.050781 490.816406 501.261719 C 491.328125 501.476562 491.8125 501.734375 492.273438 502.042969 C 492.734375 502.351562 493.160156 502.699219 493.550781 503.089844 C 493.945312 503.484375 494.292969 503.910156 494.601562 504.371094 C 494.910156 504.832031 495.167969 505.316406 495.382812 505.828125 C 495.59375 506.339844 495.753906 506.867188 495.863281 507.410156 C 495.96875 507.953125 496.023438 508.503906 496.023438 509.054688 Z M 496.023438 509.054688 " fill-opacity="1" fill-rule="nonzero"/></g><g clip-path="url(#a80a55dfe3)"><path fill="#000000" d="M 583.03125 442.808594 L 583.03125 728.90625 C 583.03125 729.460938 582.976562 730.007812 582.867188 730.550781 C 582.761719 731.09375 582.601562 731.621094 582.390625 732.132812 C 582.175781 732.644531 581.917969 733.132812 581.609375 733.589844 C 581.300781 734.050781 580.953125 734.476562 580.558594 734.871094 C 580.167969 735.261719 579.742188 735.609375 579.28125 735.917969 C 578.820312 736.226562 578.335938 736.484375 577.824219 736.699219 C 577.3125 736.910156 576.78125 737.070312 576.238281 737.179688 C 575.695312 737.285156 575.148438 737.339844 574.59375 737.339844 C 574.039062 737.339844 573.492188 737.285156 572.949219 737.179688 C 572.402344 737.070312 571.875 736.910156 571.363281 736.699219 C 570.851562 736.484375 570.367188 736.226562 569.90625 735.917969 C 569.445312 735.609375 569.019531 735.261719 568.628906 734.871094 C 568.234375 734.476562 567.886719 734.050781 567.578125 733.589844 C 567.269531 733.132812 567.011719 732.644531 566.796875 732.132812 C 566.585938 731.621094 566.425781 731.09375 566.316406 730.550781 C 566.210938 730.007812 566.15625 729.460938 566.15625 728.90625 L 566.15625 442.808594 C 566.15625 442.257812 566.210938 441.707031 566.316406 441.164062 C 566.425781 440.621094 566.585938 440.09375 566.796875 439.582031 C 567.011719 439.070312 567.269531 438.585938 567.578125 438.125 C 567.886719 437.664062 568.234375 437.238281 568.628906 436.84375 C 569.019531 436.453125 569.445312 436.105469 569.90625 435.796875 C 570.367188 435.488281 570.851562 435.230469 571.363281 435.015625 C 571.875 434.804688 572.402344 434.644531 572.949219 434.539062 C 573.492188 434.429688 574.039062 434.375 574.59375 434.375 C 575.148438 434.375 575.695312 434.429688 576.238281 434.539062 C 576.78125 434.644531 577.3125 434.804688 577.824219 435.015625 C 578.335938 435.230469 578.820312 435.488281 579.28125 435.796875 C 579.742188 436.105469 580.167969 436.453125 580.558594 436.84375 C 580.953125 437.238281 581.300781 437.664062 581.609375 438.125 C 581.917969 438.585938 582.175781 439.070312 582.390625 439.582031 C 582.601562 440.09375 582.761719 440.621094 582.867188 441.164062 C 582.976562 441.707031 583.03125 442.257812 583.03125 442.808594 Z M 583.03125 442.808594 " fill-opacity="1" fill-rule="nonzero"/></g><g clip-path="url(#0f20a9ba6c)"><path fill="#000000" d="M 235.21875 528.457031 L 235.21875 728.90625 C 235.21875 729.460938 235.167969 730.007812 235.058594 730.550781 C 234.949219 731.09375 234.789062 731.621094 234.578125 732.132812 C 234.367188 732.644531 234.105469 733.132812 233.796875 733.589844 C 233.492188 734.050781 233.140625 734.476562 232.75 734.871094 C 232.359375 735.261719 231.929688 735.609375 231.472656 735.917969 C 231.011719 736.226562 230.523438 736.484375 230.011719 736.699219 C 229.5 736.910156 228.972656 737.070312 228.429688 737.179688 C 227.886719 737.285156 227.335938 737.339844 226.78125 737.339844 C 226.230469 737.339844 225.679688 737.285156 225.136719 737.179688 C 224.59375 737.070312 224.066406 736.910156 223.554688 736.699219 C 223.042969 736.484375 222.554688 736.226562 222.09375 735.917969 C 221.636719 735.609375 221.207031 735.261719 220.816406 734.871094 C 220.425781 734.476562 220.074219 734.050781 219.765625 733.589844 C 219.460938 733.132812 219.199219 732.644531 218.988281 732.132812 C 218.777344 731.621094 218.617188 731.09375 218.507812 730.550781 C 218.398438 730.007812 218.34375 729.460938 218.34375 728.90625 L 218.34375 528.457031 C 218.34375 527.902344 218.398438 527.351562 218.507812 526.808594 C 218.617188 526.265625 218.777344 525.738281 218.988281 525.226562 C 219.199219 524.714844 219.460938 524.230469 219.765625 523.769531 C 220.074219 523.308594 220.425781 522.882812 220.816406 522.492188 C 221.207031 522.101562 221.636719 521.75 222.09375 521.441406 C 222.554688 521.132812 223.042969 520.875 223.554688 520.664062 C 224.066406 520.449219 224.59375 520.289062 225.136719 520.183594 C 225.679688 520.074219 226.230469 520.019531 226.78125 520.019531 C 227.335938 520.019531 227.886719 520.074219 228.429688 520.183594 C 228.972656 520.289062 229.5 520.449219 230.011719 520.664062 C 230.523438 520.875 231.011719 521.132812 231.472656 521.441406 C 231.929688 521.75 232.359375 522.101562 232.75 522.492188 C 233.140625 522.882812 233.492188 523.308594 233.796875 523.769531 C 234.105469 524.230469 234.367188 524.714844 234.578125 525.226562 C 234.789062 525.738281 234.949219 526.265625 235.058594 526.808594 C 235.167969 527.351562 235.21875 527.902344 235.21875 528.457031 Z M 235.21875 528.457031 " fill-opacity="1" fill-rule="nonzero"/></g><g clip-path="url(#467611bb70)"><path fill="#000000" d="M 409.117188 565.449219 L 409.117188 728.90625 C 409.117188 729.460938 409.0625 730.007812 408.957031 730.550781 C 408.847656 731.09375 408.6875 731.621094 408.476562 732.132812 C 408.261719 732.644531 408.003906 733.132812 407.695312 733.589844 C 407.386719 734.050781 407.039062 734.476562 406.644531 734.871094 C 406.253906 735.261719 405.828125 735.609375 405.367188 735.917969 C 404.90625 736.226562 404.421875 736.484375 403.910156 736.699219 C 403.398438 736.910156 402.871094 737.070312 402.324219 737.179688 C 401.78125 737.285156 401.234375 737.339844 400.679688 737.339844 C 400.125 737.339844 399.578125 737.285156 399.035156 737.179688 C 398.492188 737.070312 397.960938 736.910156 397.449219 736.699219 C 396.9375 736.484375 396.453125 736.226562 395.992188 735.917969 C 395.53125 735.609375 395.105469 735.261719 394.714844 734.871094 C 394.320312 734.476562 393.972656 734.050781 393.664062 733.589844 C 393.355469 733.132812 393.097656 732.644531 392.882812 732.132812 C 392.671875 731.621094 392.511719 731.09375 392.40625 730.550781 C 392.296875 730.007812 392.242188 729.460938 392.242188 728.90625 L 392.242188 565.449219 C 392.242188 564.894531 392.296875 564.347656 392.40625 563.804688 C 392.511719 563.261719 392.671875 562.734375 392.882812 562.222656 C 393.097656 561.710938 393.355469 561.222656 393.664062 560.765625 C 393.972656 560.304688 394.320312 559.878906 394.714844 559.484375 C 395.105469 559.09375 395.53125 558.746094 395.992188 558.4375 C 396.453125 558.128906 396.9375 557.871094 397.449219 557.65625 C 397.960938 557.445312 398.492188 557.285156 399.035156 557.175781 C 399.578125 557.070312 400.125 557.015625 400.679688 557.015625 C 401.234375 557.015625 401.78125 557.070312 402.324219 557.175781 C 402.871094 557.285156 403.398438 557.445312 403.910156 557.65625 C 404.421875 557.871094 404.90625 558.128906 405.367188 558.4375 C 405.828125 558.746094 406.253906 559.09375 406.644531 559.484375 C 407.039062 559.878906 407.386719 560.304688 407.695312 560.765625 C 408.003906 561.222656 408.261719 561.710938 408.476562 562.222656 C 408.6875 562.734375 408.847656 563.261719 408.957031 563.804688 C 409.0625 564.347656 409.117188 564.894531 409.117188 565.449219 Z M 409.117188 565.449219 " fill-opacity="1" fill-rule="nonzero"/></g><g clip-path="url(#106375f28b)"><path fill="#000000" d="M 322.125 477.847656 L 322.125 728.90625 C 322.125 729.460938 322.074219 730.007812 321.964844 730.550781 C 321.855469 731.09375 321.695312 731.621094 321.484375 732.132812 C 321.273438 732.644531 321.011719 733.132812 320.703125 733.589844 C 320.398438 734.050781 320.046875 734.476562 319.65625 734.871094 C 319.265625 735.261719 318.835938 735.609375 318.378906 735.917969 C 317.917969 736.226562 317.429688 736.484375 316.917969 736.699219 C 316.40625 736.910156 315.878906 737.070312 315.335938 737.179688 C 314.792969 737.285156 314.242188 737.339844 313.6875 737.339844 C 313.136719 737.339844 312.585938 737.285156 312.042969 737.179688 C 311.5 737.070312 310.972656 736.910156 310.460938 736.699219 C 309.949219 736.484375 309.460938 736.226562 309 735.917969 C 308.542969 735.609375 308.113281 735.261719 307.722656 734.871094 C 307.332031 734.476562 306.980469 734.050781 306.671875 733.589844 C 306.367188 733.132812 306.105469 732.644531 305.894531 732.132812 C 305.683594 731.621094 305.523438 731.09375 305.414062 730.550781 C 305.304688 730.007812 305.25 729.460938 305.25 728.90625 L 305.25 477.847656 C 305.25 477.292969 305.304688 476.746094 305.414062 476.203125 C 305.523438 475.660156 305.683594 475.132812 305.894531 474.621094 C 306.105469 474.109375 306.367188 473.621094 306.671875 473.160156 C 306.980469 472.699219 307.332031 472.273438 307.722656 471.882812 C 308.113281 471.492188 308.542969 471.140625 309 470.835938 C 309.460938 470.527344 309.949219 470.265625 310.460938 470.054688 C 310.972656 469.84375 311.5 469.683594 312.042969 469.574219 C 312.585938 469.46875 313.136719 469.414062 313.6875 469.414062 C 314.242188 469.414062 314.792969 469.46875 315.335938 469.574219 C 315.878906 469.683594 316.40625 469.84375 316.917969 470.054688 C 317.429688 470.265625 317.917969 470.527344 318.378906 470.835938 C 318.835938 471.140625 319.265625 471.492188 319.65625 471.882812 C 320.046875 472.273438 320.398438 472.699219 320.703125 473.160156 C 321.011719 473.621094 321.273438 474.109375 321.484375 474.621094 C 321.695312 475.132812 321.855469 475.660156 321.964844 476.203125 C 322.074219 476.746094 322.125 477.292969 322.125 477.847656 Z M 322.125 477.847656 " fill-opacity="1" fill-rule="nonzero"/></g><path fill="#000000" d="M 808.464844 134.429688 L 780.28125 311.558594 C 780.136719 312.429688 779.929688 313.285156 779.65625 314.128906 C 779.386719 314.96875 779.054688 315.785156 778.660156 316.578125 C 778.269531 317.371094 777.820312 318.132812 777.316406 318.859375 C 776.8125 319.585938 776.257812 320.273438 775.65625 320.917969 C 775.050781 321.5625 774.402344 322.160156 773.707031 322.710938 C 773.015625 323.257812 772.285156 323.753906 771.519531 324.199219 C 770.753906 324.640625 769.960938 325.023438 769.136719 325.351562 C 768.316406 325.675781 767.472656 325.941406 766.613281 326.140625 C 765.75 326.34375 764.878906 326.480469 764 326.554688 C 763.117188 326.628906 762.234375 326.636719 761.351562 326.582031 C 760.46875 326.523438 759.59375 326.402344 758.730469 326.21875 C 757.863281 326.035156 757.019531 325.789062 756.191406 325.476562 C 755.359375 325.167969 754.558594 324.800781 753.785156 324.371094 C 753.011719 323.945312 752.269531 323.464844 751.566406 322.929688 C 750.863281 322.390625 750.203125 321.808594 749.585938 321.175781 C 748.96875 320.539062 748.402344 319.867188 747.882812 319.148438 L 707.550781 262.636719 L 423.5625 467.597656 C 422.753906 468.179688 421.894531 468.679688 420.992188 469.105469 C 420.089844 469.527344 419.15625 469.863281 418.191406 470.109375 C 417.222656 470.359375 416.246094 470.519531 415.25 470.585938 C 414.253906 470.652344 413.261719 470.628906 412.273438 470.511719 C 411.28125 470.398438 410.3125 470.191406 409.359375 469.894531 C 408.40625 469.601562 407.488281 469.21875 406.609375 468.753906 C 405.726562 468.289062 404.894531 467.746094 404.113281 467.125 C 403.332031 466.507812 402.617188 465.820312 401.960938 465.070312 L 319.867188 368.238281 L 25.398438 591.757812 C 24.003906 592.824219 22.480469 593.640625 20.816406 594.203125 C 19.15625 594.769531 17.449219 595.046875 15.695312 595.046875 C 13.195312 595.0625 10.832031 594.5 8.605469 593.359375 C 7.261719 592.707031 6.035156 591.878906 4.921875 590.878906 C 3.8125 589.878906 2.863281 588.746094 2.070312 587.476562 C 1.28125 586.210938 0.679688 584.855469 0.269531 583.417969 C -0.140625 581.980469 -0.339844 580.515625 -0.335938 579.023438 L -0.335938 473.429688 C -0.332031 472.179688 -0.183594 470.949219 0.109375 469.738281 C 0.402344 468.523438 0.828125 467.363281 1.394531 466.25 C 1.957031 465.136719 2.640625 464.101562 3.445312 463.148438 C 4.25 462.195312 5.15625 461.347656 6.160156 460.605469 L 322.125 224.808594 C 322.9375 224.203125 323.800781 223.683594 324.707031 223.242188 C 325.617188 222.800781 326.5625 222.449219 327.539062 222.183594 C 328.511719 221.917969 329.503906 221.75 330.515625 221.671875 C 331.523438 221.59375 332.527344 221.613281 333.535156 221.722656 C 334.539062 221.835938 335.523438 222.042969 336.492188 222.339844 C 337.457031 222.636719 338.386719 223.019531 339.28125 223.492188 C 340.175781 223.964844 341.015625 224.515625 341.808594 225.148438 C 342.597656 225.777344 343.320312 226.476562 343.980469 227.246094 L 426.078125 324.074219 L 634.3125 171.246094 L 586.640625 101.40625 C 586.140625 100.664062 585.695312 99.890625 585.3125 99.082031 C 584.925781 98.273438 584.601562 97.441406 584.339844 96.585938 C 584.078125 95.730469 583.882812 94.859375 583.75 93.972656 C 583.617188 93.085938 583.554688 92.195312 583.554688 91.300781 C 583.554688 90.402344 583.625 89.511719 583.757812 88.628906 C 583.890625 87.742188 584.089844 86.871094 584.355469 86.015625 C 584.617188 85.160156 584.945312 84.328125 585.332031 83.523438 C 585.722656 82.714844 586.167969 81.941406 586.671875 81.199219 C 587.175781 80.460938 587.730469 79.761719 588.339844 79.101562 C 588.945312 78.445312 589.601562 77.835938 590.300781 77.277344 C 591 76.714844 591.734375 76.210938 592.507812 75.761719 C 593.285156 75.308594 594.085938 74.917969 594.917969 74.589844 C 595.753906 74.257812 596.605469 73.992188 597.476562 73.789062 C 598.347656 73.585938 599.230469 73.445312 600.125 73.375 C 601.019531 73.304688 601.910156 73.296875 602.804688 73.359375 C 603.699219 73.421875 604.582031 73.546875 605.457031 73.742188 L 796.144531 116.335938 C 797.128906 116.558594 798.082031 116.871094 799.003906 117.269531 C 799.929688 117.671875 800.808594 118.15625 801.640625 118.722656 C 802.472656 119.285156 803.246094 119.925781 803.957031 120.636719 C 804.667969 121.351562 805.308594 122.121094 805.875 122.953125 C 806.441406 123.785156 806.925781 124.664062 807.328125 125.585938 C 807.726562 126.511719 808.039062 127.464844 808.261719 128.445312 C 808.484375 129.429688 808.609375 130.421875 808.644531 131.429688 C 808.679688 132.433594 808.617188 133.433594 808.464844 134.429688 Z M 808.464844 134.429688 " fill-opacity="1" fill-rule="nonzero"/></svg>